<?xml version="1.0" encoding="utf-8"?>
<!-- Generator: Adobe Illustrator 28.1.0, SVG Export Plug-In . SVG Version: 6.00 Build 0)  -->
<svg version="1.1" id="Capa_1" xmlns="http://www.w3.org/2000/svg" xmlns:xlink="http://www.w3.org/1999/xlink" x="0px" y="0px"
	 viewBox="0 0 100 100" style="enable-background:new 0 0 100 100;" xml:space="preserve">
<style type="text/css">
	.st0{fill:url(#SVGID_1_);stroke:#000000;stroke-width:0.75;stroke-miterlimit:10;}
	
		.st1{fill:url(#SVGID_00000061437391356024778540000005393192379931386262_);stroke:#000000;stroke-width:0.75;stroke-miterlimit:10;}
</style>
<g>
	<linearGradient id="SVGID_1_" gradientUnits="userSpaceOnUse" x1="50.4744" y1="50.0995" x2="79.708" y2="50.0995">
		<stop  offset="0" style="stop-color:#FFEF26"/>
		<stop  offset="0.0465" style="stop-color:#FFE000"/>
		<stop  offset="0.1018" style="stop-color:#FFD300"/>
		<stop  offset="0.1587" style="stop-color:#FECB00"/>
		<stop  offset="0.2194" style="stop-color:#FDC800"/>
		<stop  offset="0.4786" style="stop-color:#F18F34"/>
		<stop  offset="0.7983" style="stop-color:#E95F32"/>
		<stop  offset="1" style="stop-color:#E3312D"/>
	</linearGradient>
	<path class="st0" d="M75.96,32.1c2.07,0,3.75-1.53,3.75-3.43v-2.65c0-1.89-1.68-3.43-3.75-3.43H54.22c-2.07,0-3.75,1.53-3.75,3.43
		v2.65c0,1.89,1.68,3.43,3.75,3.43h0c2.22,0,4.02,1.8,4.02,4.02v27.95c0,2.22-1.8,4.02-4.02,4.02h0c-2.07,0-3.75,1.53-3.75,3.43
		v2.65c0,1.89,1.68,3.43,3.75,3.43h21.74c2.07,0,3.75-1.53,3.75-3.43v-2.65c0-1.89-1.68-3.43-3.75-3.43h0
		c-2.22,0-4.02-1.8-4.02-4.02V36.12C71.94,33.9,73.74,32.1,75.96,32.1L75.96,32.1z"/>
	
		<linearGradient id="SVGID_00000098215817161339484470000004062556358816229259_" gradientUnits="userSpaceOnUse" x1="19.708" y1="50.0995" x2="48.9416" y2="50.0995">
		<stop  offset="0" style="stop-color:#E3312D"/>
		<stop  offset="0.1124" style="stop-color:#E95F32"/>
		<stop  offset="0.3315" style="stop-color:#F18F34"/>
		<stop  offset="0.7191" style="stop-color:#FDC800"/>
		<stop  offset="0.7968" style="stop-color:#FECB00"/>
		<stop  offset="0.8697" style="stop-color:#FFD300"/>
		<stop  offset="0.9405" style="stop-color:#FFE000"/>
		<stop  offset="1" style="stop-color:#FFEF26"/>
	</linearGradient>
	
		<path style="fill:url(#SVGID_00000098215817161339484470000004062556358816229259_);stroke:#000000;stroke-width:0.75;stroke-miterlimit:10;" d="
		M45.19,32.1c2.07,0,3.75-1.53,3.75-3.43v-2.65c0-1.89-1.68-3.43-3.75-3.43H23.46c-2.07,0-3.75,1.53-3.75,3.43v2.65
		c0,1.89,1.68,3.43,3.75,3.43h0c2.22,0,4.02,1.8,4.02,4.02v27.95c0,2.22-1.8,4.02-4.02,4.02h0c-2.07,0-3.75,1.53-3.75,3.43v2.65
		c0,1.89,1.68,3.43,3.75,3.43h21.74c2.07,0,3.75-1.53,3.75-3.43v-2.65c0-1.89-1.68-3.43-3.75-3.43h0c-2.22,0-4.02-1.8-4.02-4.02
		V36.12C41.17,33.9,42.97,32.1,45.19,32.1L45.19,32.1z"/>
</g>
</svg>
